<?xml version="1.0" encoding="UTF-8" standalone="no"?>
<svg
   version="1.1"
   width="5.5in"
   height="7.75in"
   viewBox="0 0 395.99683 557.99553"
   id="svg5"
   sodipodi:docname="Gear with Lines.svg"
   xml:space="preserve"
   inkscape:export-filename="phoenix-foundation-for-research-seeklogo.cdr.png"
   inkscape:export-xdpi="96"
   inkscape:export-ydpi="96"
   inkscape:version="1.3.2 (091e20e, 2023-11-25, custom)"
   xmlns:inkscape="http://www.inkscape.org/namespaces/inkscape"
   xmlns:sodipodi="http://sodipodi.sourceforge.net/DTD/sodipodi-0.dtd"
   xmlns="http://www.w3.org/2000/svg"
   xmlns:svg="http://www.w3.org/2000/svg"><defs
     id="defs5" /><sodipodi:namedview
     id="namedview5"
     pagecolor="#ffffff"
     bordercolor="#000000"
     borderopacity="0.25"
     inkscape:showpageshadow="2"
     inkscape:pageopacity="0.0"
     inkscape:pagecheckerboard="0"
     inkscape:deskcolor="#d1d1d1"
     inkscape:document-units="in"
     inkscape:zoom="1.0443548"
     inkscape:cx="263.79923"
     inkscape:cy="372"
     inkscape:window-width="1920"
     inkscape:window-height="991"
     inkscape:window-x="-9"
     inkscape:window-y="-9"
     inkscape:window-maximized="1"
     inkscape:current-layer="layer1"
     showborder="true"
     showguides="true"
     showgrid="false"><inkscape:grid
       id="grid2"
       units="in"
       originx="0"
       originy="0"
       spacingx="17.999856"
       spacingy="17.999856"
       empcolor="#0099e5"
       empopacity="0.30196078"
       color="#0099e5"
       opacity="0.14901961"
       empspacing="5"
       dotted="false"
       gridanglex="30"
       gridanglez="30"
       visible="false" /></sodipodi:namedview><g
     inkscape:groupmode="layer"
     id="layer1"
     inkscape:label="Open Source Hardware"
     style="display:inline"
     transform="translate(-99.643356,-90.000151)"><path
       id="path1-0"
       style="fill:#0099b0;fill-opacity:1;stroke:none;stroke-width:0.75"
       d="m 274.89742,108.00001 c -1.09433,0 -2.15637,0.88197 -2.35535,1.96017 l -8.50719,45.71705 c -0.20434,1.07819 -1.21577,2.24319 -2.25901,2.58735 l -0.85918,0.35192 h 73.46026 l -0.85916,-0.35192 c -1.04055,-0.34416 -2.05271,-1.50916 -2.25706,-2.58735 l -8.51112,-45.71705 c -0.19896,-1.0782 -1.26028,-1.96017 -2.35731,-1.96017 z m -86.96718,35.96729 c -0.55354,0.0512 -1.0913,0.27601 -1.47848,0.66455 l -32.16885,32.16688 c -0.77438,0.77704 -0.90226,2.14987 -0.28114,3.0533 l 25.75553,37.53624 c 0.61841,0.9088 0.71514,2.44098 0.21233,3.41702 l -10.8016,25.1952 h 101.22709 c 7.85698,-5.07742 17.19775,-8.05696 27.24778,-8.05696 10.05002,0 19.38927,2.97954 27.24581,8.05696 h 101.22906 l -10.79767,-25.1952 c -0.5055,-0.97604 -0.4095,-2.50822 0.2143,-3.41702 l 25.75356,-37.53624 c 0.61573,-0.90343 0.49395,-2.27626 -0.28311,-3.0533 l -32.16492,-32.16688 c -0.77706,-0.77707 -2.1479,-0.90226 -3.05134,-0.28115 l -38.19486,26.20968 c -0.90344,0.62111 -2.45135,0.73171 -3.43276,0.24772 l -0.47971,-0.1966 H 231.6124 a 139.05216,137.07861 0 0 0 -0.001,0 l -0.47776,0.1966 c -0.98411,0.48399 -2.53399,0.37339 -3.43473,-0.24772 L 189.50799,144.3507 c -0.45306,-0.31057 -1.02325,-0.43447 -1.57679,-0.3834 z m 110.28085,9.504 v 10e-4 a 137.3562,137.07861 0 0 1 0.6606,0.008 c -0.22023,-0.001 -0.44004,-0.004 -0.6606,-0.004 -0.0535,0 -0.10544,0.006 -0.15924,0.006 a 137.3562,137.07861 0 0 1 0.15924,-0.0121 z m -45.66593,8.57207 -12.55533,5.13931 h 115.31399 l -12.55533,-5.13931 z m -29.29052,13.70743 h 149.96599 a 137.3562,137.07861 0 0 1 5.00561,3.42687 H 218.6678 a 137.3562,137.07861 0 0 1 4.58684,-3.42687 z m -11.46612,8.56618 h 172.93755 a 137.3562,137.07861 0 0 1 4.29193,3.42882 H 207.46709 a 137.3562,137.07861 0 0 1 4.32143,-3.42882 z m -11.18696,10.28059 h 195.66731 a 137.3562,137.07861 0 0 1 3.05134,3.42882 H 197.16488 a 137.3562,137.07861 0 0 1 3.43668,-3.42882 z m -9.27198,10.28254 H 405.3993 a 137.3562,137.07861 0 0 1 3.93215,5.13931 H 187.47412 a 137.3562,137.07861 0 0 1 3.85546,-5.13931 z m 225.55158,16.68604 c 0.23638,0.40376 0.47153,0.80874 0.70384,1.21504 a 137.3562,137.07861 0 0 0 -0.70384,-1.21504 z m 1.4136,2.47137 c 0.22993,0.41214 0.4584,0.82571 0.68419,1.24057 a 137.3562,137.07861 0 0 0 -0.68419,-1.24057 z m -244.88788,9.41354 a 137.3562,137.07861 0 0 0 -0.39518,0.83558 c 0.1271,-0.28117 0.26123,-0.55836 0.39518,-0.83558 z m -7.30592,19.40315 c -0.49808,0.85709 -1.38238,1.63987 -2.29834,1.81075 l -44.19923,8.22014 c -1.0809,0.20434 -1.96018,1.26423 -1.96018,2.36126 l 0.004,45.49094 c 0,1.09704 0.88197,2.16496 1.96018,2.36125 l 43.11396,8.02354 c 0.0512,0.009 0.10184,0.0421 0.15335,0.055 h 96.85258 c -7.67963,-8.82762 -12.39606,-20.30363 -12.39606,-32.92382 0,-13.80787 5.57196,-26.30843 14.5784,-35.3991 z m 167.2733,0 c 9.00575,9.09067 14.57449,21.59124 14.57449,35.3991 0,12.6205 -4.71398,24.09613 -12.39411,32.92382 h 96.85847 c 0.0493,-0.0121 0.0982,-0.0442 0.14746,-0.0531 l 43.11397,-8.02353 c 1.07552,-0.19627 1.96017,-1.26226 1.96017,-2.35928 l 0.006,-45.49291 c 0.002,-1.09971 -0.87876,-2.15889 -1.95426,-2.36322 l -44.2012,-8.22015 c -0.91137,-0.17088 -1.79812,-0.9537 -2.29835,-1.81075 z m 102.18458,37.08009 a 137.3562,137.07861 0 0 1 0.009,0.61539 137.3562,137.07861 0 0 1 -0.008,0.11209 v -0.11209 c 0,-0.2054 -4.6e-4,-0.41055 -0.001,-0.61539 z m -274.69943,0.59376 c 9e-5,0.007 0,0.0148 0,0.0216 0,0.0141 -5e-5,0.029 0,0.0433 a 137.3562,137.07861 0 0 1 -0.005,-0.0433 137.3562,137.07861 0 0 1 0.005,-0.0216 z m 6.27963,37.5028 11.6018,28.97988 c 0.48128,0.98679 0.3682,2.53129 -0.2556,3.43473 l -24.48937,35.68811 c -0.61842,0.90344 -0.49127,2.28019 0.28311,3.05724 l 32.17081,32.1669 c 0.77438,0.77167 2.14916,0.89687 3.05528,0.28114 l 35.05505,-24.06275 c 0.90342,-0.61842 2.41821,-0.66529 3.36198,-0.11408 l 15.4592,8.25357 c 0.97872,0.50012 2.12268,0.0778 2.54214,-0.93586 L 277.8013,337.755 c 0.42214,-1.0137 -1.5e-4,-2.30759 -0.93584,-2.8803 l -3.86923,-2.36911 c -0.71521,-0.43559 -1.68486,-1.18536 -2.44579,-1.87368 -1.24101,-0.79466 -2.39704,-1.70373 -3.56056,-2.6011 z m 161.15294,0 c -1.16369,0.89738 -2.31932,1.80644 -3.56056,2.60111 -0.75554,0.68832 -1.72933,1.43808 -2.44186,1.87367 l -3.86924,2.36912 c -0.93032,0.57271 -1.35528,1.8666 -0.93584,2.88028 l 31.87592,77.02868 c 0.41943,1.01368 1.5607,1.43329 2.54211,0.93586 l 15.45923,-8.25553 c 0.94645,-0.5512 2.45855,-0.50506 3.36198,0.11596 l 35.05897,24.06077 c 0.90342,0.61573 2.27966,0.49054 3.05133,-0.28115 l 32.17083,-32.16688 c 0.77706,-0.77707 0.90422,-2.15381 0.28311,-3.05724 L 416.79661,360.4474 c -0.61841,-0.90343 -0.73493,-2.44597 -0.25362,-3.43276 l 11.60178,-28.98382 z" /><g
       id="text156"
       style="font-size:71.9994px;font-family:'Routed Gothic';-inkscape-font-specification:'Routed Gothic';text-align:center;text-anchor:middle;fill:#0099b0;stroke-width:2.27692"
       aria-label="MacGyver&#10;Sessions"
       transform="matrix(1.1265146,0,0,1.1265146,5.3935219,6.886245)"><path
         d="m 110.99846,461.58436 q -0.98436,0.98437 -2.3906,0.98437 -1.40624,0 -2.39061,-0.98437 -0.98437,-0.98437 -0.98437,-2.39061 v -44.99964 q 0,-1.40624 1.05468,-2.39061 1.12499,-0.98436 2.3203,-0.98436 h 1.33592 1.47656 q 1.05467,0 1.96873,0.70312 0.91405,0.6328 1.1953,1.54686 l 13.14834,36.21065 13.14833,-36.21065 q 0.35156,-1.05468 1.26561,-1.61718 0.98437,-0.6328 1.89843,-0.6328 h 1.40623 1.40624 q 1.40624,0 2.39061,1.12499 0.98437,1.05468 0.98437,2.24998 v 44.99964 q 0,1.40624 -0.98437,2.39061 -0.98437,0.98437 -2.39061,0.98437 -1.40624,0 -2.3906,-0.98437 -0.98437,-0.98437 -0.98437,-2.39061 v -33.53879 l -12.58584,34.66378 q -0.21093,0.63281 -0.70312,1.19531 -0.42187,0.49218 -1.05468,0.77343 -0.6328,0.28125 -1.40623,0.28125 -2.39061,0 -3.16404,-2.24999 l -12.58584,-34.66378 v 33.53879 q 0,1.40624 -0.98437,2.39061 z m 77.06189,-36.14034 q 1.40624,0 2.39061,0.98437 0.98436,0.98436 0.98436,2.3906 v 30.37476 q 0,1.40624 -0.98436,2.39061 -0.98437,0.98437 -2.39061,0.98437 -1.05468,0 -1.89842,-0.5625 -0.84375,-0.63281 -1.26562,-1.54686 -3.65622,2.67185 -8.08587,2.67185 -6.82026,0 -11.32022,-5.69527 -4.42966,-5.76558 -4.42966,-13.42958 0,-7.664 4.42966,-13.35927 4.49996,-5.76557 11.32022,-5.76557 4.42965,0 8.08587,2.67185 0.28125,-0.5625 0.70312,-1.05468 0.49219,-0.49218 1.12499,-0.77343 0.63281,-0.28125 1.33593,-0.28125 z m -3.37497,24.53887 v -11.95303 q -1.19531,-3.02342 -3.37498,-4.7109 -2.10936,-1.68749 -4.49996,-1.68749 -3.44529,0 -6.25776,3.5156 -2.74217,3.44528 -2.74217,8.8593 0,5.41402 2.74217,8.92962 2.81247,3.44528 6.25776,3.44528 1.54686,0 3.02341,-0.70311 1.47655,-0.77344 2.74217,-2.24999 1.26561,-1.47655 2.10936,-3.44528 z m 44.64808,0.21093 q 1.7578,0.91406 1.7578,2.95311 -0.0703,0.91405 -0.42187,1.61717 -2.03905,3.72653 -5.41402,6.04683 -3.30466,2.32029 -7.38276,2.32029 -6.74994,0 -11.10928,-5.69527 -4.35934,-5.76558 -4.35934,-13.42958 0,-7.664 4.35934,-13.35927 4.35934,-5.76557 11.10928,-5.76557 2.46092,0 4.78122,0.98436 2.32029,0.91406 4.07809,2.53123 1.82811,1.54686 3.23435,3.65622 0.14062,0.21094 0.21093,0.42187 0.14063,0.21094 0.21094,0.49219 0.0703,0.21093 0.0703,0.42187 0.0703,0.21094 0.0703,0.49218 0,0.42188 -0.14062,0.84375 -0.0703,0.35156 -0.28125,0.77343 -0.14062,0.35156 -0.49218,0.70312 -0.28125,0.28125 -0.63281,0.49218 -0.77343,0.5625 -1.82811,0.5625 -1.82811,0 -2.81248,-1.54687 -2.67185,-4.07809 -6.4687,-4.07809 -3.30466,0 -6.04682,3.5156 -2.67186,3.44528 -2.67186,8.8593 0,5.41402 2.67186,8.92962 2.74216,3.44528 6.04682,3.44528 1.96874,0 3.79685,-1.1953 1.82811,-1.26561 3.09372,-3.65622 0.91406,-1.7578 2.9531,-1.7578 0.42188,0 0.84375,0.14063 0.42187,0.0703 0.77343,0.28124 z m 45.70277,-24.96074 q -0.21094,0.0703 -0.42188,0.14063 -0.14062,0 -0.35155,0.0703 -0.14063,0 -0.35156,0 -1.05468,0 -1.96874,-0.56249 -0.84374,-0.63281 -1.1953,-1.47656 -0.28125,-0.6328 -0.77343,-1.33592 -0.42187,-0.77343 -1.54687,-2.03905 -1.05468,-1.33593 -2.9531,-2.17967 -1.89842,-0.84374 -4.28903,-0.84374 -5.48433,0 -9.77336,5.62495 -4.28902,5.62496 -4.28902,14.06239 0,8.43743 4.28902,14.06239 4.35934,5.62495 9.77336,5.62495 3.5156,0 5.8359,-1.68748 2.3906,-1.7578 3.72653,-3.72653 v -9.21087 h -8.43743 q -1.40624,0 -2.39061,-0.98437 -0.98437,-0.98436 -0.98437,-2.3906 0,-1.40624 0.98437,-2.39061 0.98437,-0.98437 2.39061,-0.98437 h 11.8124 q 1.1953,0 2.24998,0.98437 1.12499,0.98437 1.12499,2.39061 v 13.49989 q 0,0.35156 -0.14062,0.77343 -0.0703,0.42187 -0.21094,0.77343 -0.28124,0.42187 -0.6328,1.12499 -0.35156,0.63281 -1.82811,2.3203 -1.40624,1.68748 -3.09373,2.9531 -1.61717,1.1953 -4.42965,2.24998 -2.81248,1.05468 -5.97652,1.05468 -8.92961,0 -14.90613,-7.87494 -5.9062,-7.94525 -5.9062,-18.56235 0,-6.89057 2.60154,-12.9374 2.60154,-6.04682 7.38276,-9.77336 4.85152,-3.72653 10.82803,-3.72653 3.30467,0 6.18745,1.12499 2.88279,1.12499 4.49997,2.53123 1.61717,1.33593 2.88279,3.16404 1.33593,1.82811 1.68749,2.60154 0.35155,0.70312 0.56249,1.26562 0.21094,0.49218 0.21094,1.05468 0,1.05467 -0.63281,1.96873 -0.5625,0.91406 -1.54686,1.26561 z m 13.14832,0.42188 q 0.14063,-0.0703 0.35156,-0.0703 0.21094,-0.0703 0.35156,-0.0703 0.21094,-0.0703 0.42187,-0.0703 0.63281,0 1.26562,0.28125 0.70312,0.28125 1.1953,0.77343 0.49219,0.49218 0.70312,1.1953 l 7.87494,22.00764 7.10151,-21.93733 q 0.28124,-0.70311 0.77343,-1.1953 0.49218,-0.56249 1.12499,-0.84374 0.63281,-0.28125 1.33592,-0.28125 0.5625,0 1.05468,0.14062 0.42188,0.14063 0.77344,0.42188 0.35155,0.21093 0.6328,0.56249 0.28125,0.28125 0.49219,0.70312 0.21093,0.35156 0.28124,0.77343 0.14063,0.35156 0.14063,0.77343 0,0.21094 -0.0703,0.42188 0,0.14062 -0.0703,0.28124 0,0.14063 0,0.35156 l -11.8124,36.28096 q -3.37498,10.05461 -11.10929,10.05461 -0.28125,0 -0.56249,0 -0.21094,0 -0.42188,-0.0703 -0.21093,0 -0.42187,0 -0.21093,0 -0.35156,-0.0703 -0.14062,0 -0.28125,-0.0703 -0.14062,0 -0.21093,0 -0.0703,0 -0.14062,0 -0.77344,-0.21094 -1.40624,-0.70312 -0.63281,-0.49219 -0.98437,-1.19531 -0.28125,-0.6328 -0.28125,-1.40623 0,-0.35156 0.0703,-0.63281 0.21094,-1.19531 1.12499,-1.96874 0.98437,-0.77343 2.17967,-0.77343 l 0.49219,0.0703 q 0.0703,0 0.0703,0 0.21094,0 0.28125,0 0.14062,0.0703 0.35156,0.0703 0.21093,0 0.49218,0 2.88279,0 4.64059,-5.41402 l 1.26561,-3.79685 -10.75772,-30.30445 q -0.0703,-0.14062 -0.14063,-0.35155 0,-0.21094 -0.0703,-0.35156 0,-0.21094 0,-0.42188 0,-0.6328 0.28125,-1.26561 0.28125,-0.70312 0.77343,-1.1953 0.49218,-0.49219 1.1953,-0.70312 z m 35.01535,-0.0703 q 0.42187,-0.14062 0.98437,-0.14062 1.05468,0 1.96873,0.70312 0.91406,0.63281 1.26562,1.68749 l 7.45306,23.69512 7.45307,-23.69512 q 0.21094,-0.70312 0.70312,-1.26562 0.49218,-0.56249 1.12499,-0.84374 0.70312,-0.28125 1.40624,-0.28125 0.5625,0 0.98437,0.14062 0.70312,0.21094 1.26561,0.70312 0.5625,0.49219 0.84375,1.19531 0.28124,0.6328 0.28124,1.33592 0,0.5625 -0.14062,0.98437 l -9.56242,30.37476 q -0.35156,1.05468 -1.26562,1.7578 -0.84374,0.63281 -1.96873,0.63281 h -1.125 -1.12499 q -1.05468,0 -1.96873,-0.63281 -0.91406,-0.70312 -1.26562,-1.7578 l -9.56242,-30.37476 q -0.14062,-0.42187 -0.14062,-0.98437 0,-0.70312 0.28124,-1.33592 0.28125,-0.70312 0.84375,-1.19531 0.56249,-0.49218 1.26561,-0.70312 z m 40.78093,13.35927 h 15.328 q -0.21093,-1.05468 -0.56249,-1.89842 -0.35156,-0.91405 -0.98437,-1.96873 -2.17967,-3.44529 -6.04683,-3.44529 -0.91405,0 -1.82811,0.28125 -0.91405,0.28125 -1.82811,0.91405 -0.84374,0.5625 -1.61717,1.47656 -0.70312,0.84374 -1.40624,2.03904 -0.63281,1.1953 -1.05468,2.60154 z m -0.63281,6.74995 q 0.42188,4.92184 2.88279,7.80463 2.53123,2.88278 5.48433,2.88278 1.54687,0 2.95311,-0.42187 1.40623,-0.42187 2.24998,-0.98436 0.91405,-0.5625 1.68748,-1.33593 0.77344,-0.77343 1.05468,-1.12499 0.28125,-0.42187 0.49219,-0.77343 0.84374,-1.54687 2.88279,-1.54687 0.28124,0 0.49218,0.0703 0.28125,0.0703 0.5625,0.14062 0.28124,0.0703 0.49218,0.21094 1.7578,0.91405 1.7578,2.9531 0,0.84374 -0.42187,1.54686 -0.21094,0.49218 -0.63281,1.05468 -0.35156,0.56249 -1.61718,1.96873 -1.26561,1.33593 -2.81247,2.39061 -1.47655,0.98437 -3.93747,1.82811 -2.46092,0.77343 -5.20309,0.77343 -6.67963,0 -10.96866,-5.62495 -4.21871,-5.69527 -4.21871,-13.4999 0,-0.28124 0,-0.56249 0,-0.35156 0,-0.63281 0.0703,-0.35156 0.0703,-0.63281 0,-0.35156 0.0703,-0.6328 0.63281,-6.96089 4.78121,-11.81241 4.14841,-4.85152 10.26554,-4.85152 2.39061,0 4.49997,0.77343 2.17967,0.70312 4.00778,2.24998 1.89842,1.47655 3.30466,3.65622 1.54686,2.46092 2.17967,5.13277 0.63281,2.60154 0.63281,5.62496 0,1.40624 -1.12499,2.3906 -1.05468,0.98437 -2.24998,0.98437 z m 34.94504,-19.26547 q 0.98436,-0.98437 2.3906,-0.98437 1.40624,0 2.39061,0.98437 0.98437,0.98436 0.98437,2.3906 v 1.54687 q 4.28902,-4.92184 9.56242,-4.92184 1.40624,0 2.39061,0.98437 0.98436,0.98436 0.98436,2.3906 0,1.40624 -0.98436,2.39061 -0.98437,0.98437 -2.39061,0.98437 -0.77343,0 -1.7578,0.56249 -0.91405,0.5625 -1.96873,1.61718 -0.98437,1.05468 -2.03905,2.53123 -0.98437,1.40624 -1.96873,3.30466 -0.98437,1.89842 -1.82811,4.00778 v 14.97644 q 0,1.40624 -0.98437,2.39061 -0.98437,0.98437 -2.39061,0.98437 -1.40624,0 -2.3906,-0.98437 -0.98437,-0.98437 -0.98437,-2.39061 v -30.37476 q 0,-1.40624 0.98437,-2.3906 z"
         id="path1"
         style="stroke-width:2.27692" /><path
         d="m 152.62313,515.30268 q -0.21093,0.0703 -0.49218,0.14063 -0.28125,0 -0.49218,0 -1.125,0 -2.03905,-0.63281 -0.84374,-0.63281 -1.1953,-1.61718 -0.14063,-0.35156 -0.35156,-0.77343 -0.21094,-0.49218 -1.12499,-1.54686 -0.84375,-1.05468 -1.96874,-1.82811 -1.05468,-0.77343 -3.09372,-1.40624 -1.96874,-0.63281 -4.35934,-0.63281 -5.06246,0 -7.87494,2.03905 -2.81248,2.03905 -2.81248,5.27339 0,0.63281 0.0703,1.19531 0.14063,0.56249 0.49219,1.40624 0.42187,0.84374 1.26561,1.54686 0.84374,0.70312 2.10936,1.40624 1.33593,0.70312 3.44528,1.33592 2.17967,0.63281 4.92184,1.05468 4.49996,0.63281 7.80463,2.17967 3.37497,1.54687 5.27339,3.65622 1.96874,2.03905 2.88279,4.35935 0.98437,2.32029 0.98437,4.92183 0,6.74995 -5.20309,11.24991 -5.20308,4.49997 -13.35926,4.49997 -2.74217,0 -5.20309,-0.5625 -2.46092,-0.63281 -4.21871,-1.54686 -1.7578,-0.91406 -3.37498,-2.10936 -1.54686,-1.26562 -2.46092,-2.24998 -0.91405,-1.05468 -1.68748,-2.17967 -0.77343,-1.19531 -0.98437,-1.61718 -0.21094,-0.49218 -0.35156,-0.77343 -0.28125,-0.63281 -0.28125,-1.33593 0,-2.17967 2.03905,-3.09372 0.63281,-0.28125 1.26561,-0.28125 2.17967,0 3.09373,1.89842 0.21094,0.42188 0.49218,0.98437 0.35156,0.49218 1.33593,1.68749 1.05468,1.1953 2.32029,2.10936 1.26562,0.91405 3.37498,1.61717 2.17967,0.70312 4.64059,0.70312 5.76557,0 8.78899,-2.60154 3.02341,-2.67186 3.02341,-6.39839 0,-1.33593 -0.35156,-2.3906 -0.35156,-1.05468 -1.40624,-2.3203 -1.05468,-1.26561 -3.44528,-2.24998 -2.39061,-0.98437 -5.97652,-1.54686 -9.28117,-1.33593 -13.71083,-5.34371 -4.35934,-4.00778 -4.35934,-9.21087 0,-6.67963 5.13278,-10.33585 5.20308,-3.72653 12.30459,-3.72653 2.3906,0 4.49996,0.42187 2.17967,0.42187 3.79684,1.1953 1.61718,0.77343 2.95311,1.68749 1.33592,0.84374 2.32029,1.89842 0.98437,0.98437 1.61717,1.89842 0.70312,0.84375 1.125,1.7578 0.49218,0.84374 0.70312,1.26562 0.21093,0.42187 0.28124,0.6328 0.14063,0.49219 0.14063,0.98437 0,0.35156 -0.0703,0.70312 -0.0703,0.35156 -0.21093,0.70312 -0.14062,0.28125 -0.35156,0.56249 -0.21094,0.28125 -0.49218,0.5625 -0.21094,0.21094 -0.5625,0.42187 -0.28125,0.21094 -0.63281,0.35156 z m 20.17953,13.64052 h 15.328 q -0.21093,-1.05468 -0.56249,-1.89842 -0.35156,-0.91406 -0.98437,-1.96874 -2.17967,-3.44528 -6.04682,-3.44528 -0.91406,0 -1.82812,0.28124 -0.91405,0.28125 -1.82811,0.91406 -0.84374,0.56249 -1.61717,1.47655 -0.70312,0.84374 -1.40624,2.03905 -0.63281,1.1953 -1.05468,2.60154 z m -0.63281,6.74994 q 0.42188,4.92184 2.88279,7.80463 2.53123,2.88279 5.48434,2.88279 1.54686,0 2.9531,-0.42187 1.40624,-0.42187 2.24998,-0.98437 0.91405,-0.56249 1.68749,-1.33593 0.77343,-0.77343 1.05467,-1.12499 0.28125,-0.42187 0.49219,-0.77343 0.84374,-1.54686 2.88279,-1.54686 0.28125,0 0.49218,0.0703 0.28125,0.0703 0.5625,0.14062 0.28124,0.0703 0.49218,0.21094 1.7578,0.91406 1.7578,2.9531 0,0.84375 -0.42187,1.54686 -0.21094,0.49219 -0.63281,1.05468 -0.35156,0.5625 -1.61717,1.96874 -1.26562,1.33592 -2.81248,2.3906 -1.47655,0.98437 -3.93747,1.82811 -2.46092,0.77344 -5.20308,0.77344 -6.67964,0 -10.96867,-5.62496 -4.21871,-5.69527 -4.21871,-13.49989 0,-0.28125 0,-0.5625 0,-0.35156 0,-0.63281 0.0703,-0.35155 0.0703,-0.6328 0,-0.35156 0.0703,-0.63281 0.63281,-6.96088 4.78121,-11.81241 4.14841,-4.85152 10.26555,-4.85152 2.3906,0 4.49996,0.77343 2.17967,0.70312 4.00778,2.24998 1.89842,1.47655 3.30466,3.65622 1.54686,2.46092 2.17967,5.13278 0.63281,2.60154 0.63281,5.62495 0,1.40624 -1.12499,2.39061 -1.05468,0.98436 -2.24998,0.98436 z m 56.03862,-10.82803 q -0.91406,0.70311 -2.03905,0.70311 -0.77343,0 -1.54686,-0.35155 -0.70312,-0.35156 -1.1953,-0.98437 -0.0703,-0.0703 -0.21094,-0.14063 -0.0703,-0.14062 -0.42187,-0.35156 -0.28125,-0.28124 -0.70312,-0.49218 -0.35156,-0.28125 -0.91405,-0.56249 -0.5625,-0.35156 -1.19531,-0.5625 -0.6328,-0.21094 -1.47655,-0.35156 -0.84374,-0.14062 -1.68748,-0.14062 -2.74217,0 -4.35934,1.26561 -1.54687,1.26562 -1.54687,2.39061 0,0.70312 0.14063,1.26561 0.14062,0.49219 0.6328,1.26562 0.5625,0.77343 1.89843,1.26561 1.40624,0.49219 3.51559,0.70312 6.74995,0.63281 9.84368,3.86716 3.09372,3.23435 3.09372,7.664 0,4.99215 -3.65622,8.43743 -3.65622,3.37498 -9.56242,3.37498 -2.17967,0 -4.28903,-0.70312 -2.10936,-0.70312 -3.44529,-1.47655 -1.33592,-0.77344 -2.60154,-1.89843 -1.26561,-1.1953 -1.54686,-1.54686 -0.28125,-0.35156 -0.63281,-0.77343 -0.14062,-0.14062 -0.21094,-0.28125 -0.0703,-0.14062 -0.14062,-0.28125 -0.0703,-0.14062 -0.14062,-0.28124 -0.0703,-0.14063 -0.14063,-0.28125 0,-0.14063 -0.0703,-0.28125 0,-0.21094 0,-0.35156 0,-0.14062 0,-0.28125 0,-1.61717 1.26562,-2.67185 0.49218,-0.35156 0.98436,-0.49218 0.5625,-0.21094 1.12499,-0.21094 0.70312,0 1.40624,0.35156 0.70312,0.28125 1.19531,0.84374 0.21093,0.28125 0.70312,0.77343 0.56249,0.49219 1.54686,1.26562 0.98436,0.77343 2.32029,1.33593 1.33593,0.49218 2.67186,0.49218 3.37497,0 4.92183,-1.40624 1.54686,-1.47655 1.54686,-3.65622 0,-0.77343 -0.0703,-1.05468 0,-0.28125 -0.14062,-0.91405 -0.14063,-0.70312 -0.5625,-0.98437 -0.42187,-0.35156 -1.12499,-0.77343 -0.70312,-0.42187 -1.96873,-0.63281 -1.19531,-0.28125 -2.88279,-0.42187 -2.67186,-0.28125 -4.85153,-1.05468 -2.10935,-0.84374 -3.51559,-1.96874 -1.33593,-1.12499 -2.3203,-2.53123 -0.91405,-1.47655 -1.33592,-2.88279 -0.35156,-1.40623 -0.35156,-2.81247 0,-4.57028 3.79684,-7.45307 3.79685,-2.9531 8.85931,-2.9531 2.17967,0 4.1484,0.5625 2.03905,0.49218 3.23435,1.12499 1.26561,0.6328 2.39061,1.54686 1.12499,0.84374 1.47655,1.26561 0.42187,0.42188 0.70312,0.77344 0.35156,0.42187 0.49218,0.98436 0.21093,0.49219 0.21093,1.05468 0,1.68749 -1.26561,2.67186 z m 34.87472,0 q -0.91406,0.70311 -2.03905,0.70311 -0.77343,0 -1.54686,-0.35155 -0.70312,-0.35156 -1.1953,-0.98437 -0.0703,-0.0703 -0.21094,-0.14063 -0.0703,-0.14062 -0.42187,-0.35156 -0.28125,-0.28124 -0.70312,-0.49218 -0.35156,-0.28125 -0.91406,-0.56249 -0.56249,-0.35156 -1.1953,-0.5625 -0.63281,-0.21094 -1.47655,-0.35156 -0.84374,-0.14062 -1.68749,-0.14062 -2.74216,0 -4.35934,1.26561 -1.54686,1.26562 -1.54686,2.39061 0,0.70312 0.14062,1.26561 0.14063,0.49219 0.63281,1.26562 0.5625,0.77343 1.89842,1.26561 1.40624,0.49219 3.5156,0.70312 6.74995,0.63281 9.84367,3.86716 3.09373,3.23435 3.09373,7.664 0,4.99215 -3.65622,8.43743 -3.65622,3.37498 -9.56243,3.37498 -2.17967,0 -4.28903,-0.70312 -2.10935,-0.70312 -3.44528,-1.47655 -1.33593,-0.77344 -2.60154,-1.89843 -1.26562,-1.1953 -1.54686,-1.54686 -0.28125,-0.35156 -0.63281,-0.77343 -0.14063,-0.14062 -0.21094,-0.28125 -0.0703,-0.14062 -0.14062,-0.28125 -0.0703,-0.14062 -0.14063,-0.28124 -0.0703,-0.14063 -0.14062,-0.28125 0,-0.14063 -0.0703,-0.28125 0,-0.21094 0,-0.35156 0,-0.14062 0,-0.28125 0,-1.61717 1.26561,-2.67185 0.49219,-0.35156 0.98437,-0.49218 0.5625,-0.21094 1.12499,-0.21094 0.70312,0 1.40624,0.35156 0.70312,0.28125 1.1953,0.84374 0.21094,0.28125 0.70312,0.77343 0.5625,0.49219 1.54687,1.26562 0.98436,0.77343 2.32029,1.33593 1.33593,0.49218 2.67185,0.49218 3.37498,0 4.92184,-1.40624 1.54686,-1.47655 1.54686,-3.65622 0,-0.77343 -0.0703,-1.05468 0,-0.28125 -0.14062,-0.91405 -0.14063,-0.70312 -0.5625,-0.98437 -0.42187,-0.35156 -1.12499,-0.77343 -0.70312,-0.42187 -1.96873,-0.63281 -1.19531,-0.28125 -2.88279,-0.42187 -2.67186,-0.28125 -4.85153,-1.05468 -2.10936,-0.84374 -3.5156,-1.96874 -1.33592,-1.12499 -2.32029,-2.53123 -0.91405,-1.47655 -1.33593,-2.88279 -0.35156,-1.40623 -0.35156,-2.81247 0,-4.57028 3.79685,-7.45307 3.79684,-2.9531 8.8593,-2.9531 2.17967,0 4.14841,0.5625 2.03904,0.49218 3.23435,1.12499 1.26561,0.6328 2.3906,1.54686 1.12499,0.84374 1.47655,1.26561 0.42188,0.42188 0.70312,0.77344 0.35156,0.42187 0.49219,0.98436 0.21093,0.49219 0.21093,1.05468 0,1.68749 -1.26561,2.67186 z m 18.56235,26.71853 q -0.98436,0.98437 -2.3906,0.98437 -1.40624,0 -2.39061,-0.98437 -0.98437,-0.98436 -0.98437,-2.3906 v -30.37476 q 0,-1.40624 0.98437,-2.39061 0.98437,-0.98436 2.39061,-0.98436 1.40624,0 2.3906,0.98436 0.98437,0.98437 0.98437,2.39061 v 30.37476 q 0,1.40624 -0.98437,2.3906 z m 0,-42.74966 q -0.98436,0.98437 -2.3906,0.98437 -1.40624,0 -2.39061,-0.98437 -0.98437,-0.98436 -0.98437,-2.3906 v -3.37498 q 0,-1.40624 0.98437,-2.3906 0.98437,-0.98437 2.39061,-0.98437 1.40624,0 2.3906,0.98437 0.98437,0.98436 0.98437,2.3906 v 3.37498 q 0,1.40624 -0.98437,2.3906 z m 38.95281,11.81241 q 4.49997,5.69527 4.49997,13.35927 0,7.664 -4.49997,13.42958 -4.42965,5.69527 -11.24991,5.69527 -6.82026,0 -11.32022,-5.69527 -4.42965,-5.76558 -4.42965,-13.42958 0,-7.664 4.42965,-13.35927 4.49996,-5.76558 11.32022,-5.76558 6.82026,0 11.24991,5.76558 z m -5.06246,22.28888 q 2.81248,-3.51559 2.81248,-8.92961 0,-5.41402 -2.81248,-8.85931 -2.74216,-3.51559 -6.18745,-3.51559 -3.44528,0 -6.25776,3.51559 -2.74217,3.44529 -2.74217,8.85931 0,5.41402 2.74217,8.92961 2.81248,3.44529 6.25776,3.44529 3.44529,0 6.18745,-3.44529 z m 26.29668,8.64837 q -0.98437,0.98437 -2.39061,0.98437 -1.40624,0 -2.3906,-0.98437 -0.98437,-0.98436 -0.98437,-2.3906 v -30.37476 q 0,-1.40624 0.98437,-2.39061 0.98436,-0.98436 2.3906,-0.98436 1.05468,0 1.89843,0.6328 0.91405,0.63281 1.26561,1.61718 1.89842,-1.33593 4.07809,-2.03905 2.24999,-0.77343 4.85153,-0.77343 4.92183,0 8.36712,3.79684 3.44528,3.72654 3.44528,9.14056 v 21.37483 q 0,1.40624 -0.98436,2.3906 -0.98437,0.98437 -2.39061,0.98437 -1.40624,0 -2.39061,-0.98437 -0.98436,-0.98436 -0.98436,-2.3906 v -21.37483 q 0,-2.88279 -1.54687,-4.49997 -1.54686,-1.68748 -3.51559,-1.68748 -1.26562,0 -2.53123,0.42187 -1.26562,0.42187 -2.17967,1.05468 -0.91406,0.6328 -1.82811,1.47655 -0.84375,0.77343 -1.33593,1.40624 -0.42187,0.56249 -0.84374,1.12499 v 22.07795 q 0,1.40624 -0.98437,2.3906 z m 57.09328,-26.71853 q -0.91405,0.70311 -2.03904,0.70311 -0.77343,0 -1.54686,-0.35155 -0.70312,-0.35156 -1.19531,-0.98437 -0.0703,-0.0703 -0.21093,-0.14063 -0.0703,-0.14062 -0.42188,-0.35156 -0.28124,-0.28124 -0.70311,-0.49218 -0.35156,-0.28125 -0.91406,-0.56249 -0.5625,-0.35156 -1.1953,-0.5625 -0.63281,-0.21094 -1.47655,-0.35156 -0.84375,-0.14062 -1.68749,-0.14062 -2.74217,0 -4.35934,1.26561 -1.54686,1.26562 -1.54686,2.39061 0,0.70312 0.14062,1.26561 0.14062,0.49219 0.63281,1.26562 0.56249,0.77343 1.89842,1.26561 1.40624,0.49219 3.5156,0.70312 6.74994,0.63281 9.84367,3.86716 3.09372,3.23435 3.09372,7.664 0,4.99215 -3.65622,8.43743 -3.65622,3.37498 -9.56242,3.37498 -2.17967,0 -4.28903,-0.70312 -2.10936,-0.70312 -3.44528,-1.47655 -1.33593,-0.77344 -2.60155,-1.89843 -1.26561,-1.1953 -1.54686,-1.54686 -0.28125,-0.35156 -0.63281,-0.77343 -0.14062,-0.14062 -0.21093,-0.28125 -0.0703,-0.14062 -0.14063,-0.28125 -0.0703,-0.14062 -0.14062,-0.28124 -0.0703,-0.14063 -0.14062,-0.28125 0,-0.14063 -0.0703,-0.28125 0,-0.21094 0,-0.35156 0,-0.14062 0,-0.28125 0,-1.61717 1.26562,-2.67185 0.49218,-0.35156 0.98437,-0.49218 0.56249,-0.21094 1.12499,-0.21094 0.70312,0 1.40624,0.35156 0.70312,0.28125 1.1953,0.84374 0.21094,0.28125 0.70312,0.77343 0.56249,0.49219 1.54686,1.26562 0.98437,0.77343 2.3203,1.33593 1.33592,0.49218 2.67185,0.49218 3.37497,0 4.92184,-1.40624 1.54686,-1.47655 1.54686,-3.65622 0,-0.77343 -0.0703,-1.05468 0,-0.28125 -0.14063,-0.91405 -0.14062,-0.70312 -0.56249,-0.98437 -0.42187,-0.35156 -1.12499,-0.77343 -0.70312,-0.42187 -1.96874,-0.63281 -1.1953,-0.28125 -2.88279,-0.42187 -2.67185,-0.28125 -4.85152,-1.05468 -2.10936,-0.84374 -3.5156,-1.96874 -1.33593,-1.12499 -2.32029,-2.53123 -0.91406,-1.47655 -1.33593,-2.88279 -0.35156,-1.40623 -0.35156,-2.81247 0,-4.57028 3.79685,-7.45307 3.79684,-2.9531 8.8593,-2.9531 2.17967,0 4.1484,0.5625 2.03905,0.49218 3.23435,1.12499 1.26562,0.6328 2.39061,1.54686 1.12499,0.84374 1.47655,1.26561 0.42187,0.42188 0.70312,0.77344 0.35156,0.42187 0.49218,0.98436 0.21094,0.49219 0.21094,1.05468 0,1.68749 -1.26562,2.67186 z"
         id="path2"
         style="stroke-width:2.27692" /></g></g><g
     inkscape:groupmode="layer"
     id="layer2"
     inkscape:label="Phoenix Foundation"
     style="display:inline"
     transform="translate(-99.643356,-90.000151)"><path
       style="fill:#ffffff;stroke:none;stroke-width:2.56499;stroke-dasharray:none"
       d="m 326.00734,354.29829 c -0.0901,0.0581 -0.17732,0.12014 -0.26756,0.17802 a 121.93024,121.68383 0 0 0 0.26756,-0.17802 z"
       id="path83" /><path
       style="fill:#ffffff;stroke:none;stroke-width:2.56499;stroke-dasharray:none"
       d="m 193.84155,354.28995 a 121.93024,121.68383 0 0 0 0.29206,0.19197 c -0.0982,-0.0629 -0.1941,-0.12877 -0.29206,-0.19197 z"
       id="path82" /><path
       style="fill:#ffffff;stroke:none;stroke-width:2.56499;stroke-dasharray:none"
       d="m 340.11145,343.67871 c -0.24275,0.21175 -0.4883,0.42019 -0.73275,0.63004 a 121.93024,121.68383 0 0 0 0.73275,-0.63004 z"
       id="path81" /><path
       style="fill:#ffffff;stroke:none;stroke-width:2.56499;stroke-dasharray:none"
       d="m 179.74272,343.66798 a 121.93024,121.68383 0 0 0 0.75722,0.65099 c -0.25261,-0.21682 -0.5064,-0.43214 -0.75722,-0.65099 z"
       id="path80" /><path
       style="fill:#ffffff;stroke:none;stroke-width:2.56499;stroke-dasharray:none"
       d="m 352.1642,331.62215 c -0.0842,0.0972 -0.17426,0.1893 -0.25883,0.28622 a 121.93024,121.68383 0 0 0 0.25883,-0.28622 z"
       id="path79" /><path
       style="fill:#ffffff;stroke:none;stroke-width:2.56499;stroke-dasharray:none"
       d="m 167.68297,331.59951 a 121.93024,121.68383 0 0 0 0.30779,0.34207 c -0.10091,-0.11557 -0.20731,-0.22613 -0.30779,-0.34207 z"
       id="path78" /></g><g
     inkscape:groupmode="layer"
     id="layer3"
     inkscape:label="Lines"
     style="display:inline"
     transform="translate(-99.643356,-90.000151)" /></svg>
