<?xml version="1.0" encoding="UTF-8" standalone="no"?>
<svg
   width="472"
   height="565"
   version="1.1"
   id="svg1"
   sodipodi:docname="Shield with Gear.svg"
   inkscape:version="1.3.2 (091e20e, 2023-11-25, custom)"
   xmlns:inkscape="http://www.inkscape.org/namespaces/inkscape"
   xmlns:sodipodi="http://sodipodi.sourceforge.net/DTD/sodipodi-0.dtd"
   xmlns="http://www.w3.org/2000/svg"
   xmlns:svg="http://www.w3.org/2000/svg">
  <defs
     id="defs1" />
  <sodipodi:namedview
     id="namedview1"
     pagecolor="#ffffff"
     bordercolor="#000000"
     borderopacity="0.25"
     inkscape:showpageshadow="2"
     inkscape:pageopacity="0.0"
     inkscape:pagecheckerboard="0"
     inkscape:deskcolor="#d1d1d1"
     showgrid="false"
     inkscape:zoom="1.3752212"
     inkscape:cx="235.96203"
     inkscape:cy="282.5"
     inkscape:window-width="1920"
     inkscape:window-height="991"
     inkscape:window-x="-9"
     inkscape:window-y="-9"
     inkscape:window-maximized="1"
     inkscape:current-layer="svg1" />
  <path
     fill="none"
     stroke="#000"
     stroke-width="4"
     d="m2,2v280c0,220 212,271 234,280c22-9 234-60 234-280V2z"
     id="path1" />
  <path
     id="path1-0"
     style="display:inline;fill:#0099b0;fill-opacity:1;stroke:none;stroke-width:1.00001"
     d="m 213.84025,84.149678 c -1.06619,0 -2.10094,0.859296 -2.29481,1.909767 l -8.28847,44.541665 c -0.19907,1.05047 -1.18451,2.18551 -2.20092,2.52082 l -0.83709,0.34288 h 71.57159 l -0.83708,-0.34288 c -1.01381,-0.33531 -1.99994,-1.47035 -2.19904,-2.52082 l -8.29229,-44.541665 c -0.19385,-1.050471 -1.22788,-1.909767 -2.2967,-1.909767 z M 129.109,119.19224 c -0.5393,0.0499 -1.06324,0.26892 -1.44047,0.64746 l -31.341776,31.33987 c -0.754473,0.75706 -0.879054,2.09458 -0.273911,2.9748 l 25.093357,36.57117 c 0.60251,0.88543 0.69674,2.37822 0.20687,3.32916 l -10.52389,24.54743 h 98.62452 c 7.65498,-4.94687 16.75559,-7.84981 26.54722,-7.84981 9.79163,0 18.89078,2.90294 26.54532,7.84981 h 98.62643 L 350.65262,194.0547 c -0.49251,-0.95094 -0.39897,-2.44373 0.20879,-3.32916 l 25.09143,-36.57117 c 0.5999,-0.88022 0.48126,-2.21774 -0.27583,-2.9748 L 344.33907,119.8397 c -0.7571,-0.75709 -2.09269,-0.87907 -2.97291,-0.27392 l -37.21286,25.53583 c -0.8802,0.60513 -2.38833,0.71289 -3.34449,0.24134 l -0.46738,-0.19154 H 171.66809 a 135.4771,133.55428 0 0 0 -7.4e-4,0 l -0.46548,0.19154 c -0.95881,0.47155 -2.46884,0.36379 -3.34642,-0.24134 L 130.6462,119.56578 c -0.44142,-0.3026 -0.99695,-0.4233 -1.53626,-0.37354 z m 107.44551,9.25966 v 9.2e-4 a 133.82474,133.55428 0 0 1 0.64362,0.009 c -0.21458,-9.5e-4 -0.42874,-0.003 -0.64362,-0.003 -0.0521,0 -0.10269,0.006 -0.15514,0.006 a 133.82474,133.55428 0 0 1 0.15514,-0.0116 z m -44.49185,8.35166 -12.23252,5.00719 h 112.34924 l -12.23254,-5.00719 z m -28.53745,13.355 h 146.11033 a 133.82474,133.55428 0 0 1 4.87691,3.33879 H 159.05629 a 133.82474,133.55428 0 0 1 4.46892,-3.33879 z m -11.17132,8.34596 h 168.49129 a 133.82474,133.55428 0 0 1 4.18157,3.34066 H 148.14356 a 133.82474,133.55428 0 0 1 4.21033,-3.34066 z m -10.89935,10.01627 h 190.63667 a 133.82474,133.55428 0 0 1 2.97289,3.34066 H 138.10622 a 133.82474,133.55428 0 0 1 3.34832,-3.34066 z m -9.0336,10.01819 h 208.56595 a 133.82474,133.55428 0 0 1 3.83105,5.00716 H 128.6646 a 133.82474,133.55428 0 0 1 3.75634,-5.00716 z m 219.7526,16.25702 c 0.2303,0.39338 0.45942,0.78795 0.68574,1.18381 a 133.82474,133.55428 0 0 0 -0.68574,-1.18381 z m 1.37727,2.40783 c 0.22401,0.40154 0.44661,0.80449 0.6666,1.20868 a 133.82474,133.55428 0 0 0 -0.6666,-1.20868 z m -238.59177,9.17153 a 133.82474,133.55428 0 0 0 -0.38502,0.81409 c 0.12381,-0.27394 0.25451,-0.544 0.38502,-0.81409 z m -7.11809,18.90427 c -0.48527,0.83506 -1.34683,1.59772 -2.23923,1.7642 l -43.062861,8.00879 c -1.053118,0.1991 -1.909796,1.23174 -1.909796,2.30056 l 0.0043,44.32136 c 0,1.06884 0.859296,2.1093 1.909781,2.30053 l 42.005506,7.81726 c 0.0499,0.009 0.0992,0.0409 0.1494,0.0537 h 94.36251 c -7.4822,-8.60067 -12.07735,-19.78163 -12.07735,-32.07735 0,-13.45286 5.4287,-25.63203 14.20358,-34.48898 z m 162.97268,0 c 8.77421,8.85695 14.19978,21.03613 14.19978,34.489 0,12.29601 -4.59279,23.4766 -12.07545,32.07733 h 94.36822 c 0.048,-0.0116 0.0958,-0.0431 0.14363,-0.0518 l 42.00551,-7.81725 c 1.04786,-0.19122 1.90978,-1.2298 1.90978,-2.29863 l 0.006,-44.32327 c 0.003,-1.07144 -0.85616,-2.10338 -1.90401,-2.30247 l -43.06477,-8.0088 c -0.88795,-0.16649 -1.75189,-0.92919 -2.23926,-1.7642 z m 99.55739,36.12676 a 133.82474,133.55428 0 0 1 0.009,0.59958 133.82474,133.55428 0 0 1 -0.009,0.1092 v -0.1092 c 0,-0.20013 -4.5e-4,-0.4 -7.3e-4,-0.59958 z m -267.63685,0.57849 c 9e-5,0.007 0,0.0145 0,0.021 0,0.013 -4e-5,0.0282 0,0.0421 a 133.82474,133.55428 0 0 1 -0.004,-0.0421 133.82474,133.55428 0 0 1 0.004,-0.021 z m 6.11819,36.5386 11.30351,28.2348 c 0.4689,0.96143 0.35873,2.46621 -0.24903,3.34642 l -23.859739,34.77056 c -0.602525,0.88021 -0.478639,2.22156 0.27582,2.97863 l 31.343699,31.33989 c 0.75448,0.75182 2.0939,0.87382 2.97673,0.27391 l 34.15377,-23.44408 c 0.8802,-0.60254 2.35605,-0.6482 3.27554,-0.11123 l 15.06175,8.04138 c 0.95356,0.48726 2.06811,0.0758 2.47678,-0.9118 l 31.05828,-75.04441 c 0.41126,-0.98764 -1.5e-4,-2.24826 -0.91179,-2.80625 l -3.76975,-2.3082 c -0.69681,-0.4244 -1.64155,-1.15489 -2.3829,-1.8255 -1.20912,-0.77423 -2.33541,-1.65992 -3.46904,-2.53423 z m 157.00965,0 c -1.13377,0.87431 -2.25968,1.75999 -3.46901,2.53424 -0.73612,0.67062 -1.68488,1.40111 -2.37908,1.82549 l -3.76976,2.30822 c -0.90639,0.55797 -1.32045,1.8186 -0.91179,2.80622 l 31.0564,75.04826 c 0.40864,0.9876 1.52056,1.39644 2.47674,0.9118 l 15.06177,-8.04327 c 0.92213,-0.53704 2.39534,-0.49208 3.27555,0.11296 l 34.1576,23.44215 c 0.88018,0.59991 2.22105,0.47793 2.97288,-0.27391 l 31.3437,-31.33987 c 0.75709,-0.75709 0.88098,-2.09843 0.27583,-2.97863 l -23.86167,-34.77059 c -0.60251,-0.88018 -0.71604,-2.38308 -0.24709,-3.34449 l 11.30348,-28.23864 z" />
</svg>
